{
    "asset" : {
        "copyright" : "tincho",
        "generator" : "Khronos glTF Blender I/O v1.7.33",
        "version" : "2.0"
    },
    "scene" : 0,
    "scenes" : [
        {
            "name" : "Scene",
            "nodes" : [
                0,
                1,
                2,
                3,
                4,
                5,
                6,
                7,
                8
            ]
        }
    ],
    "nodes" : [
        {
            "mesh" : 0,
            "name" : "2",
            "scale" : [
                0.25,
                0.25,
                0.25
            ],
            "translation" : [
                0,
                1,
                0.375
            ]
        },
        {
            "mesh" : 1,
            "name" : "4",
            "scale" : [
                0.25,
                0.25,
                0.25
            ],
            "translation" : [
                0,
                1,
                -1.125
            ]
        },
        {
            "mesh" : 2,
            "name" : "3",
            "scale" : [
                0.25,
                0.25,
                0.25
            ],
            "translation" : [
                0,
                1,
                -0.375
            ]
        },
        {
            "mesh" : 3,
            "name" : "1",
            "scale" : [
                0.25,
                0.25,
                0.25
            ],
            "translation" : [
                0,
                1,
                1.125
            ]
        },
        {
            "mesh" : 4,
            "name" : "5",
            "scale" : [
                0.25,
                0.25,
                0.25
            ],
            "translation" : [
                0,
                0.25,
                1.5
            ]
        },
        {
            "mesh" : 5,
            "name" : "6",
            "scale" : [
                0.25,
                0.25,
                0.25
            ],
            "translation" : [
                0,
                0.25,
                0.75
            ]
        },
        {
            "mesh" : 6,
            "name" : "7",
            "scale" : [
                0.25,
                0.25,
                0.25
            ],
            "translation" : [
                0,
                0.25,
                0
            ]
        },
        {
            "mesh" : 7,
            "name" : "8",
            "scale" : [
                0.25,
                0.25,
                0.25
            ],
            "translation" : [
                0,
                0.25,
                -0.75
            ]
        },
        {
            "mesh" : 8,
            "name" : "9",
            "scale" : [
                0.25,
                0.25,
                0.25
            ],
            "translation" : [
                0,
                0.25,
                -1.5
            ]
        }
    ],
    "materials" : [
        {
            "doubleSided" : true,
            "name" : "Material",
            "pbrMetallicRoughness" : {
                "baseColorTexture" : {
                    "index" : 0
                },
                "metallicFactor" : 0,
                "roughnessFactor" : 0.4000000059604645
            }
        },
        {
            "doubleSided" : true,
            "name" : "Material.001",
            "pbrMetallicRoughness" : {
                "baseColorTexture" : {
                    "index" : 1
                },
                "metallicFactor" : 0,
                "roughnessFactor" : 0.4000000059604645
            }
        },
        {
            "doubleSided" : true,
            "name" : "Material.002",
            "pbrMetallicRoughness" : {
                "baseColorTexture" : {
                    "index" : 2
                },
                "metallicFactor" : 0,
                "roughnessFactor" : 0.4000000059604645
            }
        },
        {
            "doubleSided" : true,
            "name" : "Material.003",
            "pbrMetallicRoughness" : {
                "baseColorTexture" : {
                    "index" : 3
                },
                "metallicFactor" : 0,
                "roughnessFactor" : 0.4000000059604645
            }
        },
        {
            "doubleSided" : true,
            "name" : "Material.004",
            "pbrMetallicRoughness" : {
                "baseColorTexture" : {
                    "index" : 4
                },
                "metallicFactor" : 0,
                "roughnessFactor" : 0.4000000059604645
            }
        },
        {
            "doubleSided" : true,
            "name" : "Material.005",
            "pbrMetallicRoughness" : {
                "baseColorTexture" : {
                    "index" : 5
                },
                "metallicFactor" : 0,
                "roughnessFactor" : 0.4000000059604645
            }
        },
        {
            "doubleSided" : true,
            "name" : "Material.006",
            "pbrMetallicRoughness" : {
                "baseColorTexture" : {
                    "index" : 6
                },
                "metallicFactor" : 0,
                "roughnessFactor" : 0.4000000059604645
            }
        },
        {
            "doubleSided" : true,
            "name" : "Material.007",
            "pbrMetallicRoughness" : {
                "baseColorTexture" : {
                    "index" : 7
                },
                "metallicFactor" : 0,
                "roughnessFactor" : 0.4000000059604645
            }
        },
        {
            "doubleSided" : true,
            "name" : "Material.008",
            "pbrMetallicRoughness" : {
                "baseColorTexture" : {
                    "index" : 8
                },
                "metallicFactor" : 0,
                "roughnessFactor" : 0.4000000059604645
            }
        }
    ],
    "meshes" : [
        {
            "name" : "Cube",
            "primitives" : [
                {
                    "attributes" : {
                        "POSITION" : 0,
                        "NORMAL" : 1,
                        "TEXCOORD_0" : 2
                    },
                    "indices" : 3,
                    "material" : 0
                }
            ]
        },
        {
            "name" : "Cube.001",
            "primitives" : [
                {
                    "attributes" : {
                        "POSITION" : 4,
                        "NORMAL" : 5,
                        "TEXCOORD_0" : 6
                    },
                    "indices" : 3,
                    "material" : 1
                }
            ]
        },
        {
            "name" : "Cube.002",
            "primitives" : [
                {
                    "attributes" : {
                        "POSITION" : 7,
                        "NORMAL" : 8,
                        "TEXCOORD_0" : 9
                    },
                    "indices" : 3,
                    "material" : 2
                }
            ]
        },
        {
            "name" : "Cube.003",
            "primitives" : [
                {
                    "attributes" : {
                        "POSITION" : 10,
                        "NORMAL" : 11,
                        "TEXCOORD_0" : 12
                    },
                    "indices" : 3,
                    "material" : 3
                }
            ]
        },
        {
            "name" : "Cube.004",
            "primitives" : [
                {
                    "attributes" : {
                        "POSITION" : 13,
                        "NORMAL" : 14,
                        "TEXCOORD_0" : 15
                    },
                    "indices" : 3,
                    "material" : 4
                }
            ]
        },
        {
            "name" : "Cube.005",
            "primitives" : [
                {
                    "attributes" : {
                        "POSITION" : 16,
                        "NORMAL" : 17,
                        "TEXCOORD_0" : 18
                    },
                    "indices" : 3,
                    "material" : 5
                }
            ]
        },
        {
            "name" : "Cube.006",
            "primitives" : [
                {
                    "attributes" : {
                        "POSITION" : 19,
                        "NORMAL" : 20,
                        "TEXCOORD_0" : 21
                    },
                    "indices" : 3,
                    "material" : 6
                }
            ]
        },
        {
            "name" : "Cube.007",
            "primitives" : [
                {
                    "attributes" : {
                        "POSITION" : 22,
                        "NORMAL" : 23,
                        "TEXCOORD_0" : 24
                    },
                    "indices" : 3,
                    "material" : 7
                }
            ]
        },
        {
            "name" : "Cube.008",
            "primitives" : [
                {
                    "attributes" : {
                        "POSITION" : 25,
                        "NORMAL" : 26,
                        "TEXCOORD_0" : 27
                    },
                    "indices" : 3,
                    "material" : 8
                }
            ]
        }
    ],
    "textures" : [
        {
            "sampler" : 0,
            "source" : 0
        },
        {
            "sampler" : 0,
            "source" : 1
        },
        {
            "sampler" : 0,
            "source" : 2
        },
        {
            "sampler" : 0,
            "source" : 3
        },
        {
            "sampler" : 0,
            "source" : 4
        },
        {
            "sampler" : 0,
            "source" : 5
        },
        {
            "sampler" : 0,
            "source" : 6
        },
        {
            "sampler" : 0,
            "source" : 7
        },
        {
            "sampler" : 0,
            "source" : 8
        }
    ],
    "images" : [
        {
            "bufferView" : 4,
            "mimeType" : "image/png",
            "name" : "css"
        },
        {
            "bufferView" : 8,
            "mimeType" : "image/png",
            "name" : "react"
        },
        {
            "bufferView" : 12,
            "mimeType" : "image/png",
            "name" : "javascript"
        },
        {
            "bufferView" : 16,
            "mimeType" : "image/png",
            "name" : "html"
        },
        {
            "bufferView" : 20,
            "mimeType" : "image/png",
            "name" : "bootstrap"
        },
        {
            "bufferView" : 24,
            "mimeType" : "image/png",
            "name" : "github"
        },
        {
            "bufferView" : 28,
            "mimeType" : "image/png",
            "name" : "mysql"
        },
        {
            "bufferView" : 32,
            "mimeType" : "image/png",
            "name" : "mongodb"
        },
        {
            "bufferView" : 36,
            "mimeType" : "image/png",
            "name" : "nodejs"
        }
    ],
    "accessors" : [
        {
            "bufferView" : 0,
            "componentType" : 5126,
            "count" : 24,
            "max" : [
                1,
                1,
                1
            ],
            "min" : [
                -1,
                -1,
                -1
            ],
            "type" : "VEC3"
        },
        {
            "bufferView" : 1,
            "componentType" : 5126,
            "count" : 24,
            "type" : "VEC3"
        },
        {
            "bufferView" : 2,
            "componentType" : 5126,
            "count" : 24,
            "type" : "VEC2"
        },
        {
            "bufferView" : 3,
            "componentType" : 5123,
            "count" : 36,
            "type" : "SCALAR"
        },
        {
            "bufferView" : 5,
            "componentType" : 5126,
            "count" : 24,
            "max" : [
                1,
                1,
                1
            ],
            "min" : [
                -1,
                -1,
                -1
            ],
            "type" : "VEC3"
        },
        {
            "bufferView" : 6,
            "componentType" : 5126,
            "count" : 24,
            "type" : "VEC3"
        },
        {
            "bufferView" : 7,
            "componentType" : 5126,
            "count" : 24,
            "type" : "VEC2"
        },
        {
            "bufferView" : 9,
            "componentType" : 5126,
            "count" : 24,
            "max" : [
                1,
                1,
                1
            ],
            "min" : [
                -1,
                -1,
                -1
            ],
            "type" : "VEC3"
        },
        {
            "bufferView" : 10,
            "componentType" : 5126,
            "count" : 24,
            "type" : "VEC3"
        },
        {
            "bufferView" : 11,
            "componentType" : 5126,
            "count" : 24,
            "type" : "VEC2"
        },
        {
            "bufferView" : 13,
            "componentType" : 5126,
            "count" : 24,
            "max" : [
                1,
                1,
                1
            ],
            "min" : [
                -1,
                -1,
                -1
            ],
            "type" : "VEC3"
        },
        {
            "bufferView" : 14,
            "componentType" : 5126,
            "count" : 24,
            "type" : "VEC3"
        },
        {
            "bufferView" : 15,
            "componentType" : 5126,
            "count" : 24,
            "type" : "VEC2"
        },
        {
            "bufferView" : 17,
            "componentType" : 5126,
            "count" : 24,
            "max" : [
                1,
                1,
                1
            ],
            "min" : [
                -1,
                -1,
                -1
            ],
            "type" : "VEC3"
        },
        {
            "bufferView" : 18,
            "componentType" : 5126,
            "count" : 24,
            "type" : "VEC3"
        },
        {
            "bufferView" : 19,
            "componentType" : 5126,
            "count" : 24,
            "type" : "VEC2"
        },
        {
            "bufferView" : 21,
            "componentType" : 5126,
            "count" : 24,
            "max" : [
                1,
                1,
                1
            ],
            "min" : [
                -1,
                -1,
                -1
            ],
            "type" : "VEC3"
        },
        {
            "bufferView" : 22,
            "componentType" : 5126,
            "count" : 24,
            "type" : "VEC3"
        },
        {
            "bufferView" : 23,
            "componentType" : 5126,
            "count" : 24,
            "type" : "VEC2"
        },
        {
            "bufferView" : 25,
            "componentType" : 5126,
            "count" : 24,
            "max" : [
                1,
                1,
                1
            ],
            "min" : [
                -1,
                -1,
                -1
            ],
            "type" : "VEC3"
        },
        {
            "bufferView" : 26,
            "componentType" : 5126,
            "count" : 24,
            "type" : "VEC3"
        },
        {
            "bufferView" : 27,
            "componentType" : 5126,
            "count" : 24,
            "type" : "VEC2"
        },
        {
            "bufferView" : 29,
            "componentType" : 5126,
            "count" : 24,
            "max" : [
                1,
                1,
                1
            ],
            "min" : [
                -1,
                -1,
                -1
            ],
            "type" : "VEC3"
        },
        {
            "bufferView" : 30,
            "componentType" : 5126,
            "count" : 24,
            "type" : "VEC3"
        },
        {
            "bufferView" : 31,
            "componentType" : 5126,
            "count" : 24,
            "type" : "VEC2"
        },
        {
            "bufferView" : 33,
            "componentType" : 5126,
            "count" : 24,
            "max" : [
                1,
                1,
                1
            ],
            "min" : [
                -1,
                -1,
                -1
            ],
            "type" : "VEC3"
        },
        {
            "bufferView" : 34,
            "componentType" : 5126,
            "count" : 24,
            "type" : "VEC3"
        },
        {
            "bufferView" : 35,
            "componentType" : 5126,
            "count" : 24,
            "type" : "VEC2"
        }
    ],
    "bufferViews" : [
        {
            "buffer" : 0,
            "byteLength" : 288,
            "byteOffset" : 0
        },
        {
            "buffer" : 0,
            "byteLength" : 288,
            "byteOffset" : 288
        },
        {
            "buffer" : 0,
            "byteLength" : 192,
            "byteOffset" : 576
        },
        {
            "buffer" : 0,
            "byteLength" : 72,
            "byteOffset" : 768
        },
        {
            "buffer" : 0,
            "byteLength" : 20541,
            "byteOffset" : 840
        },
        {
            "buffer" : 0,
            "byteLength" : 288,
            "byteOffset" : 21384
        },
        {
            "buffer" : 0,
            "byteLength" : 288,
            "byteOffset" : 21672
        },
        {
            "buffer" : 0,
            "byteLength" : 192,
            "byteOffset" : 21960
        },
        {
            "buffer" : 0,
            "byteLength" : 25953,
            "byteOffset" : 22152
        },
        {
            "buffer" : 0,
            "byteLength" : 288,
            "byteOffset" : 48108
        },
        {
            "buffer" : 0,
            "byteLength" : 288,
            "byteOffset" : 48396
        },
        {
            "buffer" : 0,
            "byteLength" : 192,
            "byteOffset" : 48684
        },
        {
            "buffer" : 0,
            "byteLength" : 14911,
            "byteOffset" : 48876
        },
        {
            "buffer" : 0,
            "byteLength" : 288,
            "byteOffset" : 63788
        },
        {
            "buffer" : 0,
            "byteLength" : 288,
            "byteOffset" : 64076
        },
        {
            "buffer" : 0,
            "byteLength" : 192,
            "byteOffset" : 64364
        },
        {
            "buffer" : 0,
            "byteLength" : 17167,
            "byteOffset" : 64556
        },
        {
            "buffer" : 0,
            "byteLength" : 288,
            "byteOffset" : 81724
        },
        {
            "buffer" : 0,
            "byteLength" : 288,
            "byteOffset" : 82012
        },
        {
            "buffer" : 0,
            "byteLength" : 192,
            "byteOffset" : 82300
        },
        {
            "buffer" : 0,
            "byteLength" : 24847,
            "byteOffset" : 82492
        },
        {
            "buffer" : 0,
            "byteLength" : 288,
            "byteOffset" : 107340
        },
        {
            "buffer" : 0,
            "byteLength" : 288,
            "byteOffset" : 107628
        },
        {
            "buffer" : 0,
            "byteLength" : 192,
            "byteOffset" : 107916
        },
        {
            "buffer" : 0,
            "byteLength" : 20483,
            "byteOffset" : 108108
        },
        {
            "buffer" : 0,
            "byteLength" : 288,
            "byteOffset" : 128592
        },
        {
            "buffer" : 0,
            "byteLength" : 288,
            "byteOffset" : 128880
        },
        {
            "buffer" : 0,
            "byteLength" : 192,
            "byteOffset" : 129168
        },
        {
            "buffer" : 0,
            "byteLength" : 19928,
            "byteOffset" : 129360
        },
        {
            "buffer" : 0,
            "byteLength" : 288,
            "byteOffset" : 149288
        },
        {
            "buffer" : 0,
            "byteLength" : 288,
            "byteOffset" : 149576
        },
        {
            "buffer" : 0,
            "byteLength" : 192,
            "byteOffset" : 149864
        },
        {
            "buffer" : 0,
            "byteLength" : 28974,
            "byteOffset" : 150056
        },
        {
            "buffer" : 0,
            "byteLength" : 288,
            "byteOffset" : 179032
        },
        {
            "buffer" : 0,
            "byteLength" : 288,
            "byteOffset" : 179320
        },
        {
            "buffer" : 0,
            "byteLength" : 192,
            "byteOffset" : 179608
        },
        {
            "buffer" : 0,
            "byteLength" : 22500,
            "byteOffset" : 179800
        }
    ],
    "samplers" : [
        {
            "magFilter" : 9729,
            "minFilter" : 9987
        }
    ],
    "buffers" : [
        {
            "byteLength" : 202300,
            "uri" : "data:application/octet-stream;base64,"
        }
    ]
}
